<?xml version="1.0" encoding="UTF-8"?>
<svg xmlns="http://www.w3.org/2000/svg" xmlns:xlink="http://www.w3.org/1999/xlink" version="1.1" viewBox="0 0 841.9 595.3">
  <defs>
    <style>
      .cls-1 {
        fill: url(#linear-gradient-5);
      }

      .cls-2 {
        fill: url(#linear-gradient-4);
      }

      .cls-3 {
        fill: url(#linear-gradient-3);
      }

      .cls-4 {
        fill: url(#linear-gradient-2);
      }

      .cls-5 {
        fill: #0cbf9d;
      }

      .cls-6 {
        fill: url(#radial-gradient);
      }

      .cls-7 {
        fill: url(#linear-gradient);
      }

      .cls-8 {
        fill: none;
        stroke: url(#linear-gradient-6);
        stroke-linecap: round;
        stroke-linejoin: round;
        stroke-width: 14px;
      }
    </style>
    <linearGradient id="linear-gradient" x1="198.7" y1="119.1" x2="198.7" y2="44.5" gradientUnits="userSpaceOnUse">
      <stop offset="0" stop-color="#0d006a"/>
      <stop offset="1" stop-color="#00bf97"/>
    </linearGradient>
    <linearGradient id="linear-gradient-2" x1="317.9" x2="317.9" y2="24.7" xlink:href="#linear-gradient"/>
    <linearGradient id="linear-gradient-3" x1="56.9" x2="56.9" y2="47.4" xlink:href="#linear-gradient"/>
    <linearGradient id="linear-gradient-4" x1="258.2" y1="119.1" x2="258.2" y2="47.4" gradientUnits="userSpaceOnUse">
      <stop offset="0" stop-color="#0d006a"/>
      <stop offset="1" stop-color="#0bcea8"/>
    </linearGradient>
    <linearGradient id="linear-gradient-5" x1="113.6" y1="161.6" x2="113.6" y2="47.4" xlink:href="#linear-gradient"/>
    <radialGradient id="radial-gradient" cx="57.9" cy="14.3" fx="57.9" fy="14.3" r="27.2" gradientUnits="userSpaceOnUse">
      <stop offset="0" stop-color="#ffc400"/>
      <stop offset="1" stop-color="#ff2a2a"/>
    </radialGradient>
    <linearGradient id="linear-gradient-6" x1="397.8" y1="117.6" x2="397.8" y2="46.9" gradientUnits="userSpaceOnUse">
      <stop offset="0" stop-color="#0d006a"/>
      <stop offset="1" stop-color="#00bf97"/>
    </linearGradient>
  </defs>
  <!-- Generator: Adobe Illustrator 28.7.2, SVG Export Plug-In . SVG Version: 1.2.0 Build 154)  -->
  <g>
    <g id="Layer_1">
      <path class="cls-7" d="M198.7,44.5c-19.8,0-35.8,16.1-35.8,35.8v31.2c0,4.1,3.4,7.5,7.5,7.5s7.5-3.4,7.5-7.5v-31.2c0-11.5,9.4-20.8,20.8-20.8s20.8,9.4,20.8,20.8v31.2c0,4.1,3.4,7.5,7.5,7.5s7.5-3.4,7.5-7.5v-31.2c0-19.8-16.1-35.8-35.8-35.8Z"/>
      <path class="cls-4" d="M347.7,47.4h-52v-15.2c0-4.1-3.4-7.5-7.5-7.5s-7.5,3.4-7.5,7.5v51c0,19.8,16.1,35.8,35.8,35.8s35.8-16.1,35.8-35.8-3.4-7.5-7.5-7.5-7.5,3.4-7.5,7.5c0,11.5-9.4,20.8-20.8,20.8s-20.8-9.4-20.8-20.8v-20.8h52c4.1,0,7.5-3.4,7.5-7.5s-3.4-7.5-7.5-7.5Z"/>
      <path class="cls-3" d="M56.9,47.4c-4.1,0-7.5,3.4-7.5,7.5v56.7c0,4.1,3.4,7.5,7.5,7.5s7.5-3.4,7.5-7.5v-56.7c0-4.1-3.4-7.5-7.5-7.5Z"/>
      <path class="cls-2" d="M258.2,47.4c-4.1,0-7.5,3.4-7.5,7.5v56.7c0,4.1,3.4,7.5,7.5,7.5s7.5-3.4,7.5-7.5v-56.7c0-4.1-3.4-7.5-7.5-7.5Z"/>
      <path class="cls-5" d="M263.9,13.3c-4.1,0-7.5,3.4-7.5,7.5s-3,6.7-6.7,6.7-7.5,3.4-7.5,7.5,3.4,7.5,7.5,7.5c12,0,21.7-9.7,21.7-21.7s-3.4-7.5-7.5-7.5Z"/>
      <path class="cls-1" d="M142,47.4h-28.3c-19.8,0-35.8,16.1-35.8,35.8s16.1,35.8,35.8,35.8,15-2.5,20.8-6.7v13.4c0,11.5-9.4,20.8-20.8,20.8s-20.8-9.4-20.8-20.8-3.4-7.5-7.5-7.5-7.5,3.4-7.5,7.5c0,19.8,16.1,35.8,35.8,35.8s35.8-16.1,35.8-35.8V54.9c0-4.1-3.4-7.5-7.5-7.5ZM113.6,104.1c-11.5,0-20.8-9.4-20.8-20.8s9.4-20.8,20.8-20.8h20.8v20.8c0,11.5-9.4,20.8-20.8,20.8Z"/>
      <path class="cls-6" d="M38.2,4.7c3.1,1.8,3.5,4.9,1.5,8.8-7.7,17.5,2,26.1,6.9,30.2-6.2-13.4,4.2-18.2,6.3-17-4.9,2.3-2.7,8.9,1.9,8.5s7.8-4,2.9-12.8,1.5-9.6,2.5-9.8c-3.4,2.9-1.4,7.2,3,10.7s3.3,11.1,3.6,10.8c2.3-2.6,3.2-6.2,3.2-9.8.7,2,4,13.9-5.6,22.4,9-4.4,18.2-13.6,13.1-26.9-5.7-14.9-11.8-13.9-13.5-28.4-3.7,3.3-3.9,9.1-3.9,9.1-.8-2-4.5-10.8-1-18.2-14.8,11.4-13.5,32.6-13.9,31.4-.6-2.3-1.3-6.4-7.1-8.9Z"/>
      <path class="cls-8" d="M369.4,82.2h56.7c0-15.7-12.7-28.3-28.3-28.3s-28.3,12.7-28.3,28.3,12.7,28.3,28.3,28.3h28.3"/>
    </g>
  </g>
</svg>