<?xml version="1.0" encoding="UTF-8"?>
<svg id="Layer_1" xmlns="http://www.w3.org/2000/svg" xmlns:xlink="http://www.w3.org/1999/xlink" viewBox="0 0 490.33 210.6">
  <defs>
    <style>
      .cls-1 {
        fill: url(#linear-gradient-5);
      }

      .cls-2 {
        fill: url(#linear-gradient-6);
      }

      .cls-3 {
        fill: url(#linear-gradient-4);
      }

      .cls-4 {
        fill: url(#linear-gradient-3);
      }

      .cls-5 {
        fill: url(#linear-gradient-2);
      }

      .cls-6 {
        fill: url(#radial-gradient);
      }

      .cls-7 {
        fill: url(#linear-gradient);
      }

      .cls-8 {
        fill: #00bf97;
      }
    </style>
    <radialGradient id="radial-gradient" cx="21.06" cy="181.8" fx="21.06" fy="181.8" r="27.2" gradientTransform="translate(0 213.8) scale(1 -1)" gradientUnits="userSpaceOnUse">
      <stop offset="0" stop-color="#ffc400"/>
      <stop offset="1" stop-color="#ff2a2a"/>
    </radialGradient>
    <linearGradient id="linear-gradient" x1="344.53" y1="160.2" x2="344.53" y2="45" gradientUnits="userSpaceOnUse">
      <stop offset="0" stop-color="#0d006a"/>
      <stop offset="1" stop-color="#00bf97"/>
    </linearGradient>
    <linearGradient id="linear-gradient-2" x1="20.53" x2="20.53" y2="70.2" xlink:href="#linear-gradient"/>
    <linearGradient id="linear-gradient-3" x1="272.53" x2="272.53" y2="70.2" xlink:href="#linear-gradient"/>
    <linearGradient id="linear-gradient-4" x1="92.53" y1="210.6" x2="92.53" y2="70.2" xlink:href="#linear-gradient"/>
    <linearGradient id="linear-gradient-5" x1="200.53" x2="200.53" y2="70.2" xlink:href="#linear-gradient"/>
    <linearGradient id="linear-gradient-6" x1="445.33" x2="445.33" y2="70.2" xlink:href="#linear-gradient"/>
  </defs>
  <path class="cls-6" d="M1.37,22.4c3.1,1.8,3.5,4.9,1.5,8.8-7.7,17.5,2,26.1,6.9,30.2-6.2-13.4,4.2-18.2,6.3-17-4.9,2.3-2.7,8.9,1.9,8.5s7.8-4,2.9-12.8,1.5-9.6,2.5-9.8c-3.4,2.9-1.4,7.2,3,10.7s3.3,11.1,3.6,10.8c2.3-2.6,3.2-6.2,3.2-9.8.7,2,4,13.9-5.6,22.4,9-4.4,18.2-13.6,13.1-26.9-5.7-14.9-11.8-13.9-13.5-28.4-3.7,3.3-3.9,9.1-3.9,9.1-.8-2-4.5-10.8-1-18.2C7.47,11.4,8.77,32.6,8.37,31.4c-.6-2.3-1.3-6.4-7.1-8.9l.1-.1Z"/>
  <g>
    <path class="cls-7" d="M380.53,88.2c4.97,0,9-4.03,9-9s-4.03-9-9-9h-63v-16.2c0-4.97-4.03-9-9-9s-9,4.03-9,9v61.2c0,24.81,20.19,45,45,45s45-20.19,45-45c0-4.97-4.03-9-9-9s-9,4.03-9,9c0,14.89-12.11,27-27,27s-27-12.11-27-27v-27h63Z"/>
    <path class="cls-5" d="M20.53,70.2c-4.97,0-9,4.03-9,9v72c0,4.97,4.03,9,9,9s9-4.03,9-9v-72c0-4.97-4.03-9-9-9Z"/>
    <path class="cls-4" d="M272.53,70.2c-4.97,0-9,4.03-9,9v72c0,4.97,4.03,9,9,9s9-4.03,9-9v-72c0-4.97-4.03-9-9-9Z"/>
    <path class="cls-3" d="M128.53,70.2h-36c-24.81,0-45,20.19-45,45s20.19,45,45,45c10.12,0,19.47-3.36,27-9.02v14.42c0,14.89-12.11,27-27,27s-27-12.11-27-27c0-4.97-4.03-9-9-9s-9,4.03-9,9c0,24.81,20.19,45,45,45s45-20.19,45-45v-86.4c0-4.97-4.03-9-9-9ZM119.53,115.2c0,14.89-12.11,27-27,27s-27-12.11-27-27,12.11-27,27-27h27v27Z"/>
    <path class="cls-1" d="M200.53,70.2c-24.81,0-45,20.19-45,45v36c0,4.97,4.03,9,9,9s9-4.03,9-9v-36c0-14.89,12.11-27,27-27s27,12.11,27,27v36c0,4.97,4.03,9,9,9s9-4.03,9-9v-36c0-24.81-20.19-45-45-45Z"/>
    <path class="cls-8" d="M279.73,30.6c-4.97,0-9,4.03-9,9s-4.04,9-9,9-9,4.03-9,9,4.03,9,9,9c14.89,0,27-12.11,27-27,0-4.97-4.03-9-9-9Z"/>
    <path class="cls-2" d="M481.33,142.2h-36c-11.73,0-21.74-7.52-25.46-18h61.46c4.97,0,9-4.03,9-9,0-24.81-20.19-45-45-45s-45,20.19-45,45,20.19,45,45,45h36c4.97,0,9-4.03,9-9s-4.03-9-9-9ZM445.33,88.2c11.73,0,21.74,7.52,25.46,18h-50.92c3.71-10.48,13.72-18,25.46-18Z"/>
  </g>
</svg>