<?xml version="1.0" encoding="UTF-8"?>
<svg xmlns="http://www.w3.org/2000/svg" version="1.1" viewBox="0 0 122.9 106.9">
  <defs>
    <style>
      .cls-1 {
        fill: #fff;
      }
    </style>
  </defs>
  <!-- Generator: Adobe Illustrator 28.7.2, SVG Export Plug-In . SVG Version: 1.2.0 Build 154)  -->
  <g>
    <g id="Layer_1">
      <path class="cls-1" d="M56,92.2c3.4,2.5,7.2,4.5,11.2,5.8,8.4,2.7,17.8,2.2,27.1-1.7.6-.3,1.3-.3,2,0l12,4-1.3-9.8c-.1-1,.2-1.9,1-2.5,2.5-1.9,4.6-4.2,6.3-6.8,2.4-3.7,3.4-8.1,2.7-12.5-.9-4.6-2.9-8.9-6-12.5-.6-.8-1.2-1.5-1.9-2.2h0c.6-2.2,1-4.4,1.3-6.6,1.8,1.7,3.5,3.4,5,5.3,3.7,4.3,6.1,9.6,7.1,15.1.9,5.7-.3,11.5-3.5,16.3-1.7,2.7-3.9,5.1-6.3,7.1l1.6,12.4c.3,1.5-.7,3-2.2,3.3-.5,0-1,0-1.4,0l-15.2-5c-9.5,4-20.1,4.6-30,1.5-6.8-2.2-13-6-18.1-11.1.7,0,1.3,0,2.1,0,2.2,0,4.3,0,6.5,0h0ZM72.1,35.2c3.5,0,6.4,2.9,6.4,6.4s-2.9,6.4-6.4,6.4c-3.5,0-6.4-2.9-6.4-6.4,0,0,0,0,0,0,0-3.5,2.9-6.4,6.4-6.4ZM29.9,35.2c3.5,0,6.4,2.9,6.4,6.4,0,3.5-2.9,6.4-6.4,6.4-3.5,0-6.4-2.9-6.4-6.4,0,0,0,0,0,0,0-3.5,2.9-6.4,6.4-6.4ZM51,35.2c3.5,0,6.4,2.9,6.4,6.4,0,3.5-2.9,6.4-6.4,6.4-3.5,0-6.4-2.9-6.4-6.4,0,0,0,0,0,0,0-3.5,2.8-6.4,6.4-6.4h0ZM52.3,0h0c13.9.5,26.4,5.4,35.4,13.1,9.2,7.8,14.6,18.5,14.3,30.2h0c-.4,11.7-6.5,22-16.1,29.3-9.4,7.1-22.2,11.4-36.2,11-3.8-.1-7.5-.6-11.2-1.4-3.2-.7-6.4-1.7-9.4-2.9l-22.8,9,7.6-18.2c-4.1-3.6-7.5-7.9-10-12.7C1.2,52.1-.2,46.2,0,40.3c.4-11.7,6.5-22,16.1-29.3C25.5,3.8,38.3-.4,52.3,0h0ZM52.1,6.3h0c-12.5-.3-23.8,3.4-32.1,9.7-8.1,6.2-13.3,14.8-13.6,24.5-.1,4.9,1,9.7,3.2,14.1,2.5,4.7,5.9,8.9,10.1,12.2l1.9,1.5-3.6,8.7,11.2-4.4,1.2.5c3.1,1.3,6.2,2.3,9.5,3,3.3.7,6.7,1.1,10.1,1.2,12.5.4,23.9-3.4,32.2-9.7,8.1-6.2,13.3-14.8,13.6-24.4h0c.3-9.7-4.3-18.6-12.1-25.2-7.9-6.8-19-11.2-31.5-11.5h0Z"/>
    </g>
  </g>
</svg>