<?xml version="1.0" encoding="UTF-8"?>
<svg xmlns="http://www.w3.org/2000/svg" version="1.1" viewBox="0 0 2560 1980">
  <defs>
    <style>
      .cls-1 {
        fill: #fff;
      }
    </style>
  </defs>
  <!-- Generator: Adobe Illustrator 28.7.2, SVG Export Plug-In . SVG Version: 1.2.0 Build 154)  -->
  <g>
    <g id="Layer_1">
      <path class="cls-1" d="M1572.2,1627l-266-626.5c-105.4,206.8-222.2,421.7-322.1,626.2-.6,1.1-48.3.4-48.3-.2-152.7-356.4-311.1-710.4-464.5-1066.5-35.6-87.1-160.2-227.1-245.5-226.3,0-10.1-.5-32.7-.6-46.3l525.7-.2-.4,45.7c-61.7,2.9-168.4,42.3-140.8,110.4,74.1,160,336.5,779.8,407.4,937.2,49.5-96.8,187.7-355,244.5-464.2-44.6-91.5-192-433.2-236.2-519.3-33.3-56.1-117-63-181.4-63.9,0-14.4.8-25.4.5-45.1l462.2,1.4v42c-62.6,1.7-121.8,25-95,84.8,62.2,129.1,98.4,220.9,155.6,340.3,18.3-35,111.6-226.6,156.2-327.8,26.9-67.2-13.3-92.4-125.9-95.5,1.5-11.1.5-33.3,1.5-43.9,143.7-.5,360.7-1,399.2-1.6l.2,43.7c-73.4,2.8-149.2,41.9-188.9,102.6l-192.2,398.6c21.1,52.8,205.9,463.3,225.4,508.8l397.4-917.2c-28.3-74.3-118.5-90.9-153.7-91.7.3-11.8.3-29.9.4-44.9l414.8,3.2.6,2.1-.7,39.4c-91,2.7-147.3,51.4-180.9,131.2-82.7,186.7-335.4,778.2-504.1,1163.7-.2.2-44.2,0-44.3-.1Z"/>
    </g>
  </g>
</svg>