<?xml version="1.0" encoding="UTF-8"?>
<svg id="Layer_1" xmlns="http://www.w3.org/2000/svg" xmlns:xlink="http://www.w3.org/1999/xlink" viewBox="0 0 42.13 64.4">
  <defs>
    <style>
      .cls-1 {
        fill: url(#radial-gradient);
      }
    </style>
    <radialGradient id="radial-gradient" cx="21.06" cy="107.56" fx="21.06" fy="107.56" r="27.2" gradientTransform="translate(0 139.56) scale(1 -1)" gradientUnits="userSpaceOnUse">
      <stop offset="0" stop-color="#ffc400"/>
      <stop offset="1" stop-color="#ff2a2a"/>
    </radialGradient>
  </defs>
  <path class="cls-1" d="M1.37,22.4c3.1,1.8,3.5,4.9,1.5,8.8-7.7,17.5,2,26.1,6.9,30.2-6.2-13.4,4.2-18.2,6.3-17-4.9,2.3-2.7,8.9,1.9,8.5s7.8-4,2.9-12.8,1.5-9.6,2.5-9.8c-3.4,2.9-1.4,7.2,3,10.7s3.3,11.1,3.6,10.8c2.3-2.6,3.2-6.2,3.2-9.8.7,2,4,13.9-5.6,22.4,9-4.4,18.2-13.6,13.1-26.9-5.7-14.9-11.8-13.9-13.5-28.4-3.7,3.3-3.9,9.1-3.9,9.1-.8-2-4.5-10.8-1-18.2C7.47,11.4,8.77,32.6,8.37,31.4c-.6-2.3-1.3-6.4-7.1-8.9l.1-.1Z"/>
</svg>